<svg xmlns="http://www.w3.org/2000/svg" width="24" height="24" viewBox="0 0 24 24">
  <path d="m14.934 6.28v-2.7133h-5.7761v2.7133c-3.1355 1.21-5.3633 4.29-5.3633 7.92 0 4.6565 3.7131 8.4335 8.2516 8.4335 4.5384 0 8.2516-3.7767 8.2516-8.4335 0-3.63-2.2279-6.71-5.3633-7.92" fill="#ffe100"/>
  <path d="m14.934 6.28v-2.7133h-0.36665v2.7133c2.7867 1.21 4.7665 4.29 4.7665 7.92 0 4.6565-3.3 8.4335-7.3335 8.4335 4.6565 0 8.4335-3.7767 8.4335-8.4335 0-3.63-2.2733-6.71-5.5-7.92" fill="#ffa800"/>
  <path d="m20.434 14.2c0-0.33-0.03665-0.66-0.07335-0.95335-1.5767-0.69665-2.8233-1.1733-4.3265 0.22-1.1 1.1-1.9067 0.88-3.74-0.03665-1.9067-1.1733-3.7767-1.8333-5.5 0.36665-0.73335 0.95335-1.9433 1.2467-3.19 1.0633 0.33 4.3635 3.96 7.7735 8.3965 7.7735 4.6565 0 8.4335-3.7767 8.4335-8.4335" fill="#2288dd"/>
  <path d="m19.334 14.2c0-0.33-0.03665-0.66-0.07335-0.95335-1.5767-0.69665-1.7233-1.1733-3.2267 0.22-1.1 1.1-1.9067 0.88-3.74-0.03665-1.9066-1.1734-3.7766-1.8334-5.5 0.36665-0.73335 0.95335-1.9433 1.2467-3.19 1.0633 0.33 4.3635 3.96 7.7735 8.3965 7.7735 4.6565 0 7.3335-3.7767 7.3335-8.4335" fill="#3db9f9"/>
  <path d="m14.567 3.5667h-5.1333c-0.87269 0-1.54-0.47665-1.54-1.1 0-0.62335 0.66732-1.1 1.54-1.1h5.1333c0.87269 0 1.54 0.47665 1.54 1.1 0 0.62335-0.66732 1.1-1.54 1.1" fill="#ffe100"/>
  <path d="m14.934 1.3667h-1.1c0.62335 0 1.1 0.47665 1.1 1.1 0 0.62335-0.47665 1.1-1.1 1.1h1.1c0.62335 0 1.1-0.47665 1.1-1.1 0-0.62335-0.47665-1.1-1.1-1.1" fill="#ffa800"/>
  <path d="m14.934 3.9333h-5.8665c-0.80665 0-1.4667-0.66-1.4667-1.4667 0-0.80665 0.65996-1.4667 1.4667-1.4667h5.8665c0.80665 0 1.4667 0.66 1.4667 1.4667 0 0.80665-0.66 1.4667-1.4667 1.4667zm-5.8665-2.2c-0.40335 0-0.73335 0.33-0.73335 0.73335 0 0.40335 0.33 0.7333 0.73335 0.7333h5.8665c0.40335 0 0.73335-0.33 0.73335-0.73335 0-0.40335-0.33-0.7333-0.73335-0.7333z"/>
  <path d="m12 23c-4.84 0-8.8-3.96-8.8-8.8 0-3.5933 2.2-6.82 5.5-8.1765v-2.4567c0-0.22 0.14665-0.36665 0.36665-0.36665h5.8665c0.22 0 0.36665 0.14665 0.36665 0.36665v2.4567c3.3 1.32 5.5 4.5835 5.5 8.1765 0 4.84-3.96 8.8-8.8 8.8zm-2.5667-19.067v2.3467c0 0.14665-0.11 0.29335-0.25665 0.33-3.1167 1.21-5.2435 4.2167-5.2435 7.59 0 4.4365 3.63 8.0665 8.0665 8.0665 4.4365 0 8.0665-3.63 8.0665-8.0665 0-3.3733-2.1267-6.38-5.2435-7.5535-0.14665-0.036652-0.25665-0.18335-0.25665-0.33v-2.3833h-5.1335z"/>
  <path d="m9.4336 8.7h-1.4667c-0.22 0-0.36665-0.14665-0.36665-0.36665s0.14665-0.36665 0.36665-0.36665h1.4667c0.22 0 0.36665 0.14665 0.36665 0.36665s-0.14665 0.36665-0.36665 0.36665z"/>
  <path d="m7.967 10.167h-1.1c-0.22 0-0.36665-0.14665-0.36665-0.36665 0-0.22 0.14665-0.36665 0.36665-0.36665h1.1c0.22 0 0.36665 0.14665 0.36665 0.36665 0 0.22-0.14665 0.36665-0.36665 0.36665z"/>
  <path d="m7.6001 11.633h-1.8333c-0.22 0-0.36665-0.14665-0.36665-0.36665s0.14665-0.36665 0.36665-0.36665h1.8333c0.22 0 0.36665 0.14665 0.36665 0.36665 4.3e-5 0.21996-0.14665 0.36665-0.36665 0.36665z"/>
  <path d="m12 23c-4.5465 0-8.4335-3.5567-8.7635-8.1035 0-0.11 0.036652-0.22 0.11-0.29335 0.073348-0.07335 0.18335-0.11 0.29335-0.11 0.73335 0.11 2.0533 0.14665 2.86-0.91665 1.9067-2.4567 3.9967-1.6867 5.9765-0.47665 1.7967 0.88 2.3467 0.99 3.2633 0.07335 1.76-1.65 3.3-0.95335 4.73-0.29335 0.11 0.03665 0.18335 0.14665 0.22 0.29335 0.03665 0.36665 0.07335 0.69665 0.07335 0.99 0.03661 4.8765-3.9234 8.8365-8.7635 8.8365zm-7.9935-7.7365c0.51335 3.96 3.96 7.0035 7.9935 7.0035 4.4365 0 8.0665-3.63 8.0665-8.0665 0-0.22 0-0.44-0.03665-0.73335-1.4667-0.66-2.4567-0.91665-3.74 0.25665-1.32 1.32-2.3833 0.88-4.1433 0.03665-2.0533-1.2467-3.5933-1.6133-5.06 0.25665-0.6967 0.9167-1.76 1.3567-3.08 1.2467z"/>
</svg>
