<svg xmlns="http://www.w3.org/2000/svg" width="24" height="24" fill="none" stroke="#fff" stroke-linecap="round" stroke-linejoin="round" viewBox="0 0 24 24"><circle cx="12" cy="12" r="11" style="fill:#37517a;stroke-width:.25"/><path d="M5.979 18.926h-.986V5.073h.986zm6.65-7.145q.617 0 1.014-.452.41-.452.41-1.191v-.082q0-.41-.15-.767-.137-.356-.397-.616-.26-.273-.63-.424-.37-.164-.821-.164-.986 0-1.547.602t-.561 1.588v.575h-1.15v-.657q0-.63.205-1.205.22-.575.63-1.013t1.027-.698 1.423-.26q.685 0 1.26.233t.985.643q.41.397.644.93.232.521.232 1.11v.246q0 .534-.191 1.027-.178.479-.507.835-.328.356-.78.575-.438.205-.958.205h-.192q-.383 0-.383.41v1.014h-1.095v-1.287q0-.52.328-.849.329-.328.849-.328zm-1.93 4.243q0-.397.274-.67.288-.288.685-.288t.67.287q.288.274.288.671t-.287.685q-.274.273-.671.273t-.685-.273q-.273-.288-.273-.685m8.308 2.902h-.986V5.073h.986z" style="fill:#fff;stroke-width:.040103"/></svg>