<!-- SPDX-License-Identifier: MIT -->
<!-- SPDX-FileCopyrightText: Gabriele Cirulli -->
<svg xmlns="http://www.w3.org/2000/svg" width="24" height="24" viewBox="0 0 24 24" fill="#fff">
  <rect x="-9.4232e-7" y="-9.4232e-7" width="24" height="24" style="fill:#f2712c"/>
  <path d="m4.5934 10.071q-0.2756 0-0.52534 0.10335-0.24115 0.09474-0.51674 0.31866l-0.47369-0.72345q0.33589-0.2756 0.72345-0.42201 0.39617-0.15502 0.93016-0.15502 0.4134 0 0.73204 0.12057 0.32727 0.12057 0.5512 0.33589 0.22393 0.21531 0.33589 0.50815 0.12057 0.28421 0.12057 0.62871 0 0.56843-0.40478 1.1971-0.40478 0.62008-1.1627 1.3349l-0.54257 0.50815h2.1703v0.88706h-3.3244l-0.2067-0.75791 0.77509-0.77509q0.43062-0.43062 0.72345-0.75791 0.29282-0.33589 0.47369-0.60289 0.18087-0.267 0.25837-0.49092 0.077501-0.22392 0.077509-0.44783 0-0.39617-0.2067-0.60289-0.19809-0.2067-0.50815-0.2067z"/>
  <path d="m9.4508 9.1922q0.48229 0 0.88706 0.16364 0.4134 0.15502 0.70622 0.49951 0.30144 0.33589 0.46506 0.86983 0.17225 0.52534 0.17225 1.266 0 0.73204-0.18086 1.266-0.18086 0.52534-0.49092 0.86983-0.31006 0.3445-0.71481 0.51674-0.40479 0.16364-0.85265 0.16364-0.48229 0-0.8957-0.15502-0.40478-0.16364-0.70622-0.50815-0.30144-0.34451-0.47369-0.87847-0.16364-0.53397-0.16364-1.2747 0-0.70622 0.18086-1.2316 0.18947-0.53397 0.49951-0.87847 0.31004-0.3445 0.71481-0.51674 0.4134-0.17225 0.85265-0.17225zm-1.0679 2.799q0 0.57702 0.086124 0.95598t0.23254 0.60289q0.15502 0.22392 0.3445 0.31866 0.19809 0.08612 0.40478 0.08612t0.39617-0.09474q0.19809-0.09474 0.33589-0.31866 0.14641-0.22392 0.23254-0.60289 0.08613-0.37897 0.08612-0.94739 0-0.57702-0.08612-0.94739-0.08612-0.37894-0.23254-0.59425-0.1378-0.22392-0.33589-0.31005-0.18947-0.09474-0.39617-0.09474t-0.40478 0.09474q-0.18947 0.08612-0.3445 0.31005-0.14641 0.22392-0.23254 0.60289-0.086124 0.37034-0.086124 0.93875z"/>
  <path d="m14.437 9.287h1.3263v3.2899h0.79232v0.88706h-0.79232v1.2488h-1.0938v-1.2488h-2.5148v-0.73204zm-0.23254 1.9722-0.87847 1.3177h1.3435v-1.223l0.05167-1.0421h-0.01722z"/>
  <path d="m19.071 9.1922q0.45646 0 0.79232 0.12057t0.5598 0.31866q0.22394 0.19808 0.32727 0.44783 0.11196 0.24976 0.11196 0.51674 0 0.43062-0.26699 0.74927-0.25837 0.31005-0.69758 0.49092 0.23254 0.07751 0.43062 0.19809t0.3445 0.28421q0.15502 0.16364 0.24115 0.37894 0.08612 0.2067 0.08612 0.46506 0 0.37895-0.14641 0.6804-0.14641 0.30145-0.4134 0.51674-0.25837 0.21531-0.62871 0.33589-0.36172 0.11196-0.80955 0.11196-0.43924 0-0.80096-0.11196t-0.62008-0.31866-0.39617-0.49092q-0.13782-0.28422-0.1378-0.62871 0-0.26699 0.07751-0.47369 0.07751-0.20671 0.21531-0.36172 0.14641-0.16364 0.33589-0.28421 0.19809-0.12057 0.43062-0.21531-0.37894-0.17225-0.62871-0.48229-0.24976-0.31866-0.24976-0.73204 0-0.28421 0.11196-0.5512 0.12057-0.2756 0.35311-0.49092 0.23253-0.21533 0.57702-0.3445 0.34449-0.12917 0.80096-0.12919zm-0.74068 1.4469q0 0.31866 0.22392 0.52534 0.22392 0.19809 0.53397 0.29282 0.2756-0.10335 0.46506-0.31005 0.19809-0.2067 0.19809-0.47369 0-0.31866-0.19809-0.48228-0.18947-0.17225-0.51674-0.17225-0.32727 0-0.51674 0.18947-0.18947 0.18086-0.18947 0.43062zm0.6373 1.7311q-0.33589 0.11196-0.5512 0.32727-0.21531 0.2067-0.21531 0.53397 0 0.32728 0.21531 0.53397 0.22392 0.19809 0.62871 0.19809 0.35311 0 0.57702-0.21531 0.23254-0.22392 0.23254-0.52534 0-0.32727-0.24976-0.54257t-0.6373-0.31005z"/>
</svg>
