<svg xmlns="http://www.w3.org/2000/svg" width="24" height="24" fill="none" stroke="#fff" stroke-linecap="round" stroke-linejoin="round" viewBox="0 0 24 24"><circle cx="12.23" cy="12.23" r="11" style="fill:#4c5462;stroke-width:.25"/><path d="M5.102 6.141q0-.465.288-.766.3-.302.766-.302h1.328v.986H6.54q-.37 0-.37.41v4.381q0 .466-.301.767-.288.3-.767.3h-.164v.165h.164q.48 0 .767.301.301.301.301.767v4.38q0 .411.37.411h.944v.986H6.156q-.465 0-.766-.301-.288-.302-.288-.767v-4.723q0-.397-.37-.397h-.697v-1.478h.698q.37 0 .37-.397zm7.528 5.64q.616 0 1.013-.452.41-.451.41-1.19v-.083q0-.41-.15-.766-.137-.356-.397-.616-.26-.274-.63-.425-.37-.164-.821-.164-.986 0-1.547.602-.561.603-.561 1.588v.575h-1.15v-.657q0-.63.205-1.205.22-.575.63-1.013t1.026-.698q.616-.26 1.424-.26.685 0 1.26.233t.985.643q.41.397.644.931.232.52.232 1.109v.246q0 .534-.191 1.027-.178.48-.507.835-.328.356-.78.575-.438.205-.958.205h-.192q-.383 0-.383.411v1.013h-1.095v-1.287q0-.52.328-.849.329-.328.849-.328zm-1.93 4.244q0-.397.273-.671.288-.288.685-.288t.67.288q.288.274.288.67t-.287.685q-.274.274-.671.274t-.685-.274q-.273-.287-.273-.684m8.198-5.161q0 .397.37.397h.697v1.478h-.698q-.37 0-.37.397v4.723q0 .465-.3.766-.288.302-.753.302h-1.328v-.986h.944q.37 0 .37-.41V13.15q0-.466.287-.767.302-.3.78-.3h.165v-.165h-.164q-.48 0-.78-.301-.288-.302-.288-.767V6.47q0-.411-.37-.411h-.944v-.986h1.328q.465 0 .753.301.3.302.3.767z" style="fill:#fff;stroke-width:.040105"/></svg>