<svg xmlns="http://www.w3.org/2000/svg" width="24" height="24" fill="#fff" viewBox="0 0 24 24"><path d="M0 0h24v24H0z" style="fill:#f2712c"/><path d="M4.593 10.071q-.275 0-.525.103-.241.095-.517.319l-.473-.723q.336-.276.723-.422.396-.155.93-.155.414 0 .732.12.328.12.551.336.224.215.336.508.12.284.12.629 0 .568-.404 1.197-.405.62-1.163 1.335l-.542.508h2.17v.887H3.207L3 13.955l.775-.775q.43-.43.724-.758.292-.336.473-.603t.259-.49.077-.448q0-.397-.207-.603-.198-.207-.508-.207M9.45 9.192q.483 0 .888.164.413.155.706.5.302.335.465.87.172.525.172 1.265 0 .732-.18 1.266-.181.526-.491.87-.31.345-.715.517-.405.163-.853.163-.482 0-.896-.155-.404-.163-.706-.508-.301-.344-.473-.878-.164-.534-.164-1.275 0-.706.18-1.232.19-.534.5-.878.31-.345.715-.517.413-.172.853-.172zm-1.067 2.8q0 .576.086.955t.233.603q.155.224.344.319.198.086.405.086t.396-.095q.198-.095.336-.319.146-.223.232-.602.087-.38.087-.948 0-.577-.087-.947-.086-.38-.232-.594-.138-.224-.336-.31-.19-.095-.396-.095t-.405.094q-.19.087-.344.31-.147.224-.233.603-.086.37-.086.94M14.437 9.287h1.326v3.29h.793v.887h-.793v1.249H14.67v-1.249h-2.514v-.732zm-.233 1.972-.878 1.318h1.343v-1.223l.052-1.042h-.017zM19.071 9.192q.456 0 .792.12t.56.32.327.447q.112.25.112.517 0 .43-.267.75-.258.31-.697.49.232.078.43.198t.345.284q.155.164.241.38.086.206.086.464 0 .38-.146.68-.147.302-.414.518-.258.215-.628.336-.362.111-.81.111-.44 0-.8-.111t-.62-.32-.397-.49-.138-.629q0-.267.078-.473.077-.207.215-.362.146-.164.336-.284.198-.121.43-.216-.379-.172-.628-.482-.25-.319-.25-.732 0-.284.112-.551.12-.276.353-.491t.577-.345q.345-.129.801-.129m-.74 1.447q0 .319.223.525.224.199.534.293.276-.103.465-.31.198-.206.198-.473 0-.32-.198-.483-.19-.172-.516-.172-.328 0-.517.19-.19.18-.19.43m.637 1.731q-.336.112-.552.327-.215.207-.215.534t.215.534q.224.198.63.198.352 0 .576-.215.233-.224.233-.525 0-.327-.25-.543t-.637-.31"/></svg>