<!-- SPDX-FileCopyrightText: aao.fyi -->
<svg xmlns="http://www.w3.org/2000/svg" width="24" height="24" viewBox="0 0 24 24" fill="none" stroke="#fff" stroke-linecap="round" stroke-linejoin="round">
 <!-- aao.fyi -->
 <circle cx="12.23" cy="12.23" r="11" style="fill:#4c5462;stroke-width:.25"/>
 <path d="m5.1023 6.1411q0-0.46543 0.28747-0.76659 0.30116-0.30116 0.76659-0.30116h1.3278v0.98562h-0.94455q-0.36961 0-0.36961 0.41067v4.3805q0 0.46543-0.30116 0.76659-0.28747 0.30116-0.76659 0.30116h-0.16427v0.16427h0.16427q0.47912 0 0.76659 0.30116 0.30116 0.30116 0.30116 0.76659v4.3805q0 0.41067 0.36961 0.41067h0.94455v0.98562h-1.3278q-0.46543 0-0.76659-0.30116-0.28747-0.30116-0.28747-0.76659v-4.7227q0-0.39698-0.36961-0.39698h-0.69814v-1.4784h0.69814q0.36961 0 0.36961-0.39698zm7.5274 5.6399q0.61601 0 1.013-0.45174 0.41067-0.45174 0.41067-1.191v-0.08213q0-0.41067-0.15058-0.76659-0.13689-0.35592-0.39698-0.61601-0.26009-0.27378-0.6297-0.42436-0.3696-0.16427-0.82135-0.16427-0.98562 0-1.5469 0.60232-0.56125 0.60232-0.56125 1.5879v0.57494h-1.1499v-0.65708q0-0.6297 0.20534-1.2046 0.21903-0.57494 0.6297-1.013 0.41067-0.43805 1.0267-0.69814 0.61601-0.26009 1.4237-0.26009 0.68446 0 1.2594 0.23271t0.98562 0.64339q0.41067 0.39698 0.64339 0.93086 0.23271 0.52019 0.23271 1.1088v0.2464q0 0.53388-0.19165 1.0267-0.17796 0.47912-0.5065 0.83504-0.32854 0.35592-0.78028 0.57494-0.43805 0.20534-0.95824 0.20534h-0.19165q-0.3833 0-0.3833 0.41067v1.013h-1.0951v-1.2868q0-0.52019 0.32854-0.84872 0.32854-0.32854 0.84872-0.32854zm-1.9302 4.2436q0-0.39698 0.27378-0.67077 0.28747-0.28747 0.68446-0.28747 0.39698 0 0.67077 0.28747 0.28747 0.27378 0.28747 0.67077t-0.28747 0.68446q-0.27378 0.27378-0.67077 0.27378-0.39698 0-0.68446-0.27378-0.27378-0.28747-0.27378-0.68446zm8.1982-5.1608q0 0.39698 0.3696 0.39698h0.69814v1.4784h-0.69814q-0.3696 0-0.3696 0.39698v4.7227q0 0.46543-0.30116 0.76659-0.28747 0.30116-0.7529 0.30116h-1.3278v-0.98562h0.94455q0.36961 0 0.36961-0.41067v-4.3805q0-0.46543 0.28747-0.76659 0.30116-0.30116 0.78028-0.30116h0.16427v-0.16427h-0.16427q-0.47912 0-0.78028-0.30116-0.28747-0.30116-0.28747-0.76659v-4.3805q0-0.41067-0.36961-0.41067h-0.94455v-0.98562h1.3278q0.46543 0 0.7529 0.30116 0.30116 0.30116 0.30116 0.76659z" style="fill:#fff;stroke-width:.040105"/>
</svg>
