<!-- SPDX-FileCopyrightText: aao.fyi -->
<svg xmlns="http://www.w3.org/2000/svg" width="24" height="24" viewBox="0 0 24 24" fill="none" stroke="#fff" stroke-linecap="round" stroke-linejoin="round">
 <!-- arcade.aao.fyi -->
 <circle cx="12" cy="12" r="11" style="fill:#37517a;stroke-width:.25"/>
 <path d="m5.9786 18.926h-0.98558v-13.853h0.98558zm6.6511-7.1454q0.61599 0 1.013-0.45172 0.41066-0.45172 0.41066-1.1909v-0.08213q0-0.41066-0.15058-0.76656-0.13689-0.35591-0.39697-0.61599-0.26008-0.27377-0.62968-0.42435-0.36959-0.16426-0.82132-0.16426-0.98558 0-1.5468 0.6023-0.56123 0.6023-0.56123 1.5879v0.57492h-1.1498v-0.65705q0-0.62968 0.20533-1.2046 0.21902-0.57492 0.62968-1.013 0.41066-0.43804 1.0266-0.69812t1.4236-0.26008q0.68443 0 1.2594 0.23271t0.98558 0.64336q0.41066 0.39697 0.64336 0.93082 0.23271 0.52017 0.23271 1.1088v0.24639q0 0.53386-0.19164 1.0266-0.17795 0.4791-0.50648 0.835-0.32853 0.3559-0.78025 0.57492-0.43804 0.20533-0.9582 0.20533h-0.19164q-0.38328 0-0.38328 0.41066v1.013h-1.0951v-1.2867q0-0.52017 0.32853-0.84869 0.32853-0.32853 0.84869-0.32853zm-1.9301 4.2435q0-0.39697 0.27377-0.67074 0.28746-0.28746 0.68443-0.28746t0.67074 0.28746q0.28746 0.27377 0.28746 0.67074 0 0.39697-0.28746 0.68443-0.27377 0.27377-0.67074 0.27377t-0.68443-0.27377q-0.27377-0.28746-0.27377-0.68443zm8.3074 2.902h-0.98558v-13.853h0.98558z" style="fill:#fff;stroke-width:.040103"/>
</svg>
